<svg width="32" height="32" xmlns="http://www.w3.org/2000/svg">
  <g fill="none" fill-rule="evenodd">
    <path fill="none" d="M0 0h32v32H0z"/>
    <path fill="currentColor" fill-rule="nonzero" d="M10.82 32a2.48 2.48 0 0 1-.423-.04l.063-.673h.628a.624.624 0 0 0 .251-.13.633.633 0 0 0 .199-.363.83.83 0 0 0 .013-.15c0-.365-.003-.706-.007-1.164a395.7 395.7 0 0 1-.017-1.886c-5.723 1-7.059-2.867-7.113-3.034-.911-2.215-2.163-2.78-2.167-2.781l-.047-.025c-2.884-1.897.336-1.858.346-1.858h.022c2.256.153 3.457 2.155 3.523 2.266.685 1.13 1.529 1.688 2.368 1.918 1.215.334 2.441-.004 3.166-.292.1-.571.266-1.065.472-1.484.14-.282.297-.53.468-.746-2.185-.299-4.375-.908-6.085-2.294-1.899-1.538-3.186-4.007-3.186-8.025h.002a8.23 8.23 0 0 1 .57-3.07 8.154 8.154 0 0 1 1.555-2.465 6.41 6.41 0 0 1-.356-1.742c-.068-.974.042-2.244.64-3.7L5.72.235s.26-.214.627-.231c.242-.012.608 0 1.101.096.962.187 2.434.7 4.467 2.006a20.3 20.3 0 0 1 2.472-.474 22.31 22.31 0 0 1 2.761-.183h.003c.923.004 1.844.065 2.759.183.841.109 1.67.267 2.475.474C26.47-.52 28.355.06 28.359.06l.165.048.064.153c.6 1.459.712 2.727.645 3.699a6.43 6.43 0 0 1-.356 1.742 8.105 8.105 0 0 1 1.552 2.46c.37.93.571 1.954.571 3.077 0 4.028-1.288 6.497-3.19 8.029-1.713 1.38-3.905 1.98-6.095 2.274.257.322.487.718.666 1.19.242.636.394 1.41.394 2.326 0 1.633-.012 3.332-.02 4.457-.004.413-.007.721-.007 1.129 0 .05.005.105.016.162.028.137.09.266.197.359a.604.604 0 0 0 .225.119h.664l.066.672a2.445 2.445 0 0 1-.446.043 1.84 1.84 0 0 1-.375-.037l-11.91.002a1.796 1.796 0 0 1-.364.035V32z"/>
  </g>
</svg>
